<?xml version="1.0" standalone="no"?>
<!DOCTYPE svg PUBLIC "-//W3C//DTD SVG 20010904//EN"
 "http://www.w3.org/TR/2001/REC-SVG-20010904/DTD/svg10.dtd">
<svg version="1.0" xmlns="http://www.w3.org/2000/svg"
 width="800.000000pt" height="800.000000pt" viewBox="0 0 800.000000 800.000000"
 preserveAspectRatio="xMidYMid meet">
<metadata>
Created by potrace 1.14, written by Peter Selinger 2001-2017
</metadata>
<g transform="translate(0.000000,800.000000) scale(0.100000,-0.100000)"
fill="#000000" stroke="none">
<path d="M3789 7256 c-2 -2 -41 -6 -87 -10 -261 -19 -602 -95 -867 -194 -914
-341 -1633 -1071 -1963 -1992 -39 -108 -104 -332 -116 -396 -2 -16 -12 -67
-20 -114 -9 -47 -19 -105 -22 -130 -3 -25 -8 -54 -10 -65 -25 -133 -24 -745 1
-819 3 -6 6 -29 9 -51 45 -394 230 -909 457 -1270 205 -327 488 -646 759 -855
25 -19 47 -37 50 -41 12 -14 219 -154 309 -208 91 -55 269 -148 351 -184 19
-8 55 -24 80 -34 166 -74 500 -172 675 -199 28 -5 52 -9 55 -9 7 -2 97 -15
136 -20 207 -27 629 -27 809 0 17 3 48 7 70 10 377 51 760 179 1113 372 119
65 354 214 387 246 7 7 23 19 35 27 12 8 28 20 34 25 6 6 38 32 71 60 675 560
1099 1367 1182 2250 10 106 10 456 0 575 -50 609 -280 1211 -648 1700 -410
544 -940 929 -1589 1154 -180 63 -480 132 -660 151 -30 4 -68 8 -85 11 -37 6
-511 15 -516 10z m86 -1425 c-8 -7 -994 -8 -1005 -1 -10 6 95 261 159 388 104
205 236 395 366 527 139 140 260 218 405 261 l75 22 3 -596 c1 -327 0 -598 -3
-601z m320 1172 c221 -69 447 -273 639 -576 86 -136 202 -376 259 -532 l25
-70 -507 0 -506 0 -3 602 -2 601 22 -5 c13 -3 46 -12 73 -20z m-915 -46 c0 -1
-32 -36 -71 -77 -199 -211 -381 -512 -513 -850 -32 -80 -63 -158 -70 -175
l-13 -30 -536 0 -536 0 27 35 c50 68 191 226 264 296 248 239 498 415 803 565
194 95 309 138 575 218 36 10 66 20 68 20 1 1 2 0 2 -2z m1500 -23 c30 -8 63
-17 73 -19 40 -9 209 -70 308 -110 372 -152 711 -378 1000 -665 123 -122 269
-289 269 -306 0 -5 -235 -9 -535 -9 l-536 0 -16 55 c-9 30 -20 62 -24 70 -5 8
-27 62 -50 120 -126 317 -355 679 -535 848 -39 36 -33 38 46 16z m-2235 -1335
c3 -4 1 -17 -4 -30 -22 -60 -96 -404 -126 -589 -3 -19 -7 -46 -10 -60 -10 -55
-31 -228 -39 -320 -3 -30 -8 -82 -11 -115 -7 -74 -13 -198 -17 -327 l-3 -98
-717 0 -716 0 3 28 c2 15 7 65 9 112 18 271 91 587 201 871 29 75 58 145 64
155 5 11 32 64 59 119 55 111 127 234 146 250 14 11 1150 14 1161 4z m1335
-766 l0 -773 -660 0 -660 0 -1 28 c-1 15 -1 29 -1 32 0 3 3 68 7 145 3 77 8
158 10 180 14 146 17 173 20 195 2 14 6 52 10 85 12 114 54 351 90 515 50 227
87 351 106 358 10 4 257 7 548 7 l531 0 0 -772z m1310 761 c8 -8 66 -214 85
-304 34 -154 73 -364 89 -480 12 -80 26 -199 31 -255 3 -33 7 -80 10 -105 2
-25 7 -123 11 -217 l6 -173 -661 0 -661 0 0 769 c0 504 3 770 10 773 27 9
1070 2 1080 -8z m1442 -49 c64 -101 173 -323 231 -470 44 -111 119 -345 131
-409 2 -6 8 -36 14 -66 15 -71 22 -108 27 -145 3 -16 7 -45 10 -63 18 -118 34
-315 25 -325 -3 -4 -325 -6 -716 -5 l-709 3 -1 40 c-5 148 -15 345 -18 370 -2
17 -7 70 -11 120 -4 49 -8 92 -10 95 -1 3 -6 39 -10 80 -4 41 -10 93 -15 115
-5 22 -11 65 -15 95 -3 30 -8 62 -10 70 -2 8 -7 31 -10 50 -12 71 -75 357 -94
425 -11 38 -16 72 -11 75 4 3 266 5 581 5 l573 0 38 -60z m-4296 -1765 c2 -77
14 -316 19 -370 2 -25 7 -78 10 -117 3 -40 8 -81 10 -91 1 -10 6 -45 10 -77 4
-33 9 -67 11 -77 1 -9 5 -38 9 -65 4 -26 16 -97 27 -158 11 -60 22 -121 24
-135 7 -37 73 -321 83 -358 5 -17 6 -33 3 -35 -4 -2 -266 -3 -582 -3 l-575 1
-53 88 c-161 268 -292 602 -357 907 -30 140 -44 233 -59 380 -5 45 -9 134 -7
157 1 10 155 12 714 10 l712 -2 1 -55z m1544 -713 l0 -772 -545 0 -546 0 -19
65 c-78 267 -164 725 -185 990 -3 41 -8 89 -10 107 -3 18 -8 108 -11 200 -3
92 -8 171 -10 175 -3 4 295 7 661 7 l665 0 0 -772z m1536 595 c-4 -97 -9 -197
-11 -222 -7 -75 -26 -243 -30 -270 -2 -14 -7 -45 -10 -70 -34 -252 -151 -784
-176 -800 -4 -3 -249 -5 -546 -5 l-538 0 -3 772 -2 772 661 0 662 0 -7 -177z
m1655 165 c3 -26 -8 -198 -16 -249 -3 -23 -15 -103 -20 -143 -14 -97 -68 -313
-110 -440 -73 -219 -167 -427 -276 -610 l-54 -90 -575 1 c-316 1 -579 2 -584
3 -4 1 -5 9 -1 19 4 9 8 24 10 32 2 8 17 71 34 140 16 69 32 139 35 155 3 17
14 75 25 130 18 91 29 157 37 210 22 156 32 239 39 320 3 33 7 83 10 110 5 44
10 146 19 355 2 36 4 66 5 67 0 2 321 3 711 3 550 -1 710 -3 711 -13z m-4453
-1762 c5 -6 21 -46 36 -90 61 -175 189 -446 285 -600 77 -123 188 -270 268
-351 39 -41 65 -74 58 -74 -18 0 -174 45 -280 82 -502 171 -966 484 -1312 883
-125 145 -123 142 -123 152 0 12 1058 9 1068 -2z m1260 -593 l2 -601 -71 20
c-279 77 -543 341 -763 761 -60 114 -159 338 -176 397 l-7 26 506 -1 506 0 3
-602z m1234 587 c-11 -47 -97 -246 -163 -377 -220 -433 -484 -704 -771 -790
-37 -11 -69 -17 -72 -14 -7 6 -8 1187 -2 1193 2 2 231 4 508 3 428 -1 503 -3
500 -15z m1325 12 c2 -1 -7 -13 -20 -28 -209 -251 -364 -402 -572 -558 -311
-233 -646 -400 -1029 -510 -48 -14 -94 -25 -101 -25 -8 0 12 26 43 58 206 207
408 544 547 912 26 69 51 132 55 140 7 13 76 15 542 13 293 0 534 -1 535 -2z"/>
</g>
</svg>
